<?xml version="1.0" encoding="utf-8"?>
<!-- Generator: Adobe Illustrator 18.0.0, SVG Export Plug-In . SVG Version: 6.00 Build 0)  -->
<!DOCTYPE svg PUBLIC "-//W3C//DTD SVG 1.1//EN" "http://www.w3.org/Graphics/SVG/1.1/DTD/svg11.dtd">
<svg version="1.1" id="Calque_1_-_copie_4" xmlns="http://www.w3.org/2000/svg" xmlns:xlink="http://www.w3.org/1999/xlink" x="0px"
	 y="0px" viewBox="0 0 960 560" enable-background="new 0 0 960 560" xml:space="preserve">
<g style="fill: #000">
	<g>
		<g>
			<path d="M454,149c0,2.7-0.6,5.4-0.9,8.1c-0.6,3.9-0.9,7.5-0.9,11.4v48.3c0,5.7-1.8,11.4-5.1,16.5c-1.8,2.4-3.6,4.2-6.3,5.7
				c-2.4,1.8-5.1,2.4-8.4,2.4c-5.7,0-10.5-2.4-14.7-6.3c-2.1-1.8-3.9-3.9-5.7-6.3c-1.8-2.1-3.6-4.2-5.1-6.3
				c-3-4.2-8.4-11.4-16.8-21.3c-3.9-4.5-7.5-8.7-10.8-11.7c-3.3-3.3-5.7-4.8-7.5-5.1c0,8.4,0,17.1-0.3,25.5c0,3-0.3,6.3-0.3,9.6
				c0,2.7,0.3,5.4,1.2,8.1s1.2,5.4,1.2,8.1c0,1.8-0.6,3.6-1.8,5.1c-1.5,1.5-3.3,3-5.4,4.5c-4.5,2.7-8.4,4.2-12,4.2
				c-0.9-0.3-1.5-1.2-1.8-2.4c-0.9-2.7-1.5-5.7-2.1-8.7s-0.9-5.7-1.2-8.7c-1.2-9.6-2.4-19.2-3.6-28.8c-1.5-10.5-3.3-21-5.1-31.5
				c-0.6-3-1.2-6-1.8-9.3s-1.2-6.6-1.2-9.3c0-1.8,0.6-3.6,1.8-5.4c0.9-1.8,2.4-3.6,3.9-5.1c3.6-3.3,7.2-4.8,10.5-5.1
				c2.4,0,5.1,0.3,7.5,1.2c2.4,0.9,4.5,2.4,5.7,4.8c2.1,3.3,5.1,6,8.4,7.8c2.4,1.5,4.5,3.3,6.3,5.4c1.8,2.4,3.3,4.8,5.1,6.9
				c12,15.6,24.3,31.2,36.6,46.5c0.6-0.6,1.2-1.5,1.5-3c0.3-1.2,0.3-2.7,0.3-4.2c0-3.6,0-6.3,0-7.8v-35.1
				c0.3-12.9,6.6-19.5,19.2-19.8c2.1,0,4.2,1.5,6,3.6C453.1,144.5,454,147,454,149z"/>
			<path d="M543.4,174.5c0,10.8-3,21.6-8.7,33c-5.7,11.7-13.2,20.4-22.2,26.1c-2.7,1.5-7.5,3.9-14.4,6.9c-3.3,1.2-6,2.4-8.7,3.3
				c-2.7,1.2-4.5,1.8-5.7,1.8s-1.8-0.6-2.4-1.8c-0.6-0.9-0.9-1.8-1.2-2.7c-0.6-3-1.2-6.3-1.5-9.9c-0.6-3.3-0.9-6.6-1.2-9.9
				c-1.5-11.4-2.7-22.8-3.6-34.5c-1.2-10.8-2.1-21.6-2.7-32.4c-0.9-7.5-1.2-15.3-1.2-22.8c0-2.4,0.3-3.9,0.9-4.8
				c0.6-0.9,1.8-1.8,3.3-2.7c5.7-2.7,11.7-4.2,18-4.2c10.5,0,19.8,3.6,27.9,10.2c7.8,6.3,13.8,14.4,18,24
				C541.6,161,543.1,167.7,543.4,174.5z M519.4,177c-0.3-14.1-6.9-23.7-20.1-28.5c-1.5-0.6-2.7-0.9-4.2-1.2c-1.5,0-2.4,0.9-2.4,2.4
				c0,0.9,0,1.5,0.3,2.4c1.8,10.8,3,21.6,3,33c0.3,6,0.3,11.7,0.6,17.4c0,3.3-0.3,6.3-0.3,9.6c0,0.6,0,1.2,0.3,2.1
				c0,0.9,0.6,1.8,1.2,2.1c6-4.8,11.1-10.5,15.3-17.4C517.3,192,519.4,184.8,519.4,177z"/>
			<path d="M665.8,135c-1.5-0.9-3.6-1.5-6.3-1.8c-5.4-0.6-9.6-0.9-12.3-0.9c-5.4,0-11.1,0.9-16.8,2.7c-5.7,1.8-11.4,3-17.1,4.2
				c-0.9,0-1.8,0.3-2.4,0.6c-0.6,0-1.5,0.6-1.8,1.2c-0.9,0.9-1.5,2.4-1.5,4.5c0,1.5,0,3,0.3,4.5c-0.3,18.9-1.2,37.5-3,56.1
				c-0.6,6.9-0.9,13.8-0.9,20.7c0,2.7,0.3,5.4,0.9,8.1s1.8,5.1,3.9,7.2c3,2.7,7.5,5.4,13.5,8.1c3,1.2,5.7,2.4,8.7,3
				c2.7,0.6,4.8,1.2,6.6,1.2c5.7,0,9.9-2.1,13.2-5.7c3.3-3.6,4.8-8.1,4.8-13.8c0-1.8,0-3-0.3-3.9c-0.3-0.6-1.2-0.9-3-0.9
				c-8.4,0-15-1.5-19.8-5.1c-5.1-3.3-7.8-9.6-7.8-18.6c0-3,0.3-6,0.6-8.7h15.3c2.1,0,4.8-0.9,7.8-2.4c1.5-0.6,2.7-1.5,3.6-2.7
				c1.2-1.5,1.5-3.3,2.4-4.8s0.9-2.4-0.6-4.2c-1.2-1.2-2.1-1.2-3.6-1.5c-3.3,0-6-0.3-8.7-0.3c-4.8,0-9.9,0-15,0.3
				c0.3-11.1,0.6-21.9,0.6-32.7c1.2-0.3,2.7-0.3,3.9-0.3c3.3,0,6.6,0.3,9.9,0.6c3.3,0.6,6.6,0.9,9.9,0.9c0.9,0,2.1,0,3.3-0.3
				c1.2-0.3,2.1-0.6,2.7-0.9l11.1-8.7c0.6-0.6,0.9-1.5,0.9-2.4C668.5,137,667.6,135.9,665.8,135z"/>
			<g>
				<path d="M584.2,208.8c-0.3,4.5-4.8,16.8-12.3,14.7c-6.6-1.8-10.2-10.8-10.8-16.5c-1.5-13.5,1.5-31.5,0.9-44.7
					c-1.2-10.8-1.5-21.3-0.6-32.1c0.3-3.3,1.5-5.4,4.2-6.6c2.4-1.5,4.8-1.8,7.5-1.8c2.7,0.3,9.3,1.5,10.5,3.3
					c1.2,1.8,1.5,4.2,1.2,7.2c-0.6,7.8-1.2,15.6-1.8,23.4c-0.3,6-0.6,12-0.6,18.3c0.3,3.9,0.6,8.4,1.5,12.9
					C584.2,192,584.5,204.9,584.2,208.8z M587.5,246.9c-0.3,3.3-2.1,6.3-4.5,8.4c-2.7,2.1-10.2,3-13.8,3c-3-0.6-4.8-2.1-5.1-5.4
					c-0.3-2.7-0.6-5.4,0-8.1c0.3-3,1.5-5.7,3.6-7.8c2.1-1.8,9-2.7,12-2.4c3,0.3,5.1,1.8,6.3,4.2
					C587.2,241.2,587.8,243.9,587.5,246.9z"/>
			</g>
			<g>
				<path d="M296.5,175.8c0.3-4.5,0.3-17.7,5.1-19.2c9.3-2.7,17.4,10.5,18,16.2c1.5,13.5-1.5,31.5-0.9,44.7
					c1.2,10.8,1.5,21.3,0.6,32.1c-0.3,3.3-1.5,5.4-4.2,6.6c-2.4,1.5-9.3,1.8-12,1.8c-2.7-0.3-4.8-1.5-6-3.3s-1.5-4.2-1.2-7.2
					c0.6-7.8,1.2-15.6,1.8-23.4c0.3-6,0.6-12,0.6-18.3c-0.3-3.9-0.6-8.4-1.5-12.9C296.2,188,296.2,179.4,296.5,175.8z M293.2,133.2
					c0.3-3.3,2.1-6.3,4.5-8.4c2.7-2.1,5.7-3,9.3-3c3,0.6,9.3,2.1,9.6,5.4c0.3,2.7,0.6,5.4,0,8.1c-0.3,3-1.5,5.7-3.6,7.8
					c-2.1,1.8-9,2.7-12,2.4c-3-0.3-5.1-1.8-6.3-4.2C293.5,138.9,292.9,136.2,293.2,133.2z"/>
			</g>
		</g>
		<g>
			<path d="M403.9,317c0,4.2-0.3,8.4-0.9,13.2c-0.6,4.8-2.1,9-3.9,13.2c-1.8,4.2-4.2,7.5-7.5,9.9c-3.3,2.7-7.5,4.2-12.9,4.2
				c-11.1,0-18.9-3.3-22.8-9.9c-3.9-6.3-6-14.7-5.7-25.2c0-7.5,0.9-15,3.3-22.2c2.4-7.2,6.9-12.9,13.5-16.8
				c3.9-2.4,7.8-3.3,12.3-3.3c4.2,0,7.8,1.2,11.1,3.9c3,2.4,5.4,5.7,7.5,9.6C401.8,301.5,403.9,309.5,403.9,317z M385.6,326.7
				c0-3-0.6-6-1.2-9c-0.3-2.1-1.5-6-3-12c-0.6-2.7-1.5-4.8-2.4-6.9c-0.9-1.8-1.8-2.7-2.4-2.7c-2.1,0-3.6,0.9-4.8,2.1
				c-1.2,1.5-2.1,3-2.4,5.4c-0.9,4.8-1.2,8.7-1.2,12c0,2.1,0.3,4.5,0.6,7.2c0.3,3,0.9,6,1.8,8.7c0.9,2.7,2.1,5.4,3.9,7.2
				c1.8,2.1,4.2,3.3,6.9,3.3c0.9,0,1.8-0.6,2.4-2.1c0.6-1.5,0.9-3,1.5-4.8C385.3,331.2,385.6,328.5,385.6,326.7z"/>
			<path d="M414.4,301.8c0-2.7,0.9-5.4,3-8.1c1.8-3,3.6-5.4,5.4-7.5c1.5-1.8,3.6-4.5,6.6-7.8c1.5-1.5,2.7-2.7,4.2-3.6
				c3-2.1,8.4-2.1,9.9,1.8c0.6,1.2,1.2,2.1,1.2,2.7c0,1.2-0.9,2.7-2.4,4.2s-3,3.3-4.8,5.1c-2.1,1.8-3.6,3.9-5.1,6
				c-1.2,1.8-2.1,3.9-2.1,6c0,1.8,0.9,3.9,2.7,6.6c1.8,2.4,4.2,4.8,6.6,7.8c2.4,3,4.5,6,6.3,9.3c2.1,3.3,3,6.9,3,10.5
				c0,6.3-2.4,12.9-6.9,19.5c-2.1,3.3-4.5,6-7.5,7.8c-2.7,2.1-5.7,3-8.7,3c-0.6,0-1.5-0.3-2.1-1.2c-0.6-0.6-1.5-1.5-2.1-2.7
				c-1.2-2.4-2.1-4.2-2.1-5.7c0-0.6,0.3-1.2,0.6-1.8c0.6-0.9,1.2-1.5,1.8-1.5c0.9,0,1.8-0.6,2.7-1.5c0.9-1.2,1.8-2.4,2.7-4.2
				c1.8-3.6,3-6.3,3.6-7.8c0.6-2.4,1.2-4.8,1.2-7.2c0-3-0.9-6-2.7-8.4c-1.8-2.4-3.6-4.8-6-7.2c-2.4-2.1-4.2-4.5-6-6.6
				C415.3,307.2,414.4,304.5,414.4,301.8z"/>
			<path d="M516.4,286.2c0,2.7-0.6,4.8-1.8,6.3c-1.2,1.5-2.7,2.7-4.8,3c-2.1,0.6-4.2,0.9-6.6,0.9c-2.4,0.3-4.5,0.3-6.6,0.3
				c-1.8,0-3.9,0-5.7,0c-0.3,3-0.6,5.7-1.2,8.7c-0.6,3-0.9,6-1.2,9l-0.6,25.2c0,1.8,0,3.9,0,6.3c0,2.4-0.3,5.1-0.9,7.2
				c-0.6,2.4-1.5,4.2-2.7,5.7s-3.3,2.4-6,2.7c-0.6,0.3-1.2,0.3-1.8,0.3c-0.9,0-1.5-0.6-1.8-1.8c-0.3-0.9-0.6-1.8-0.6-2.4
				c0-4.5,0.3-9,0.9-13.5c0.9-10.8,1.5-21.6,1.5-32.1c0-5.7-0.6-11.4-1.5-17.1c-1.5-0.3-3.6-0.9-6-1.5c-2.4-0.6-5.1-1.2-7.5-2.1
				c-2.4-0.9-4.5-2.4-6.3-3.9s-2.7-3.3-2.7-5.1c0-0.9,0.3-2.1,1.2-2.7c0.6-0.9,1.5-1.2,2.4-1.2h5.1c0.3-0.3,0.9-0.6,1.8-0.9
				c0.9-0.3,1.8-0.3,2.7-0.3c2.1,0,3.6,0,4.5,0c6.6,0,13.2,0.6,20.1,1.2c3.9,0.3,7.8,0.6,11.7,1.2c1.8,0.9,3.3,1.2,5.1,1.5
				c1.8-0.3,3.3-0.3,5.1-0.6c1.5,0,2.4,0.6,3.3,1.8C516.1,283.5,516.4,284.7,516.4,286.2z"/>
			<path d="M567.1,359.4c-1.2,0.6-2.4,0.9-4.2,1.2c-3.6,0.3-6.6,0.6-8.4,0.6c-3.6,0-7.5-0.6-11.4-1.8s-7.8-2.1-11.7-2.7
				c-0.6,0-1.2-0.3-1.5-0.3c-0.6,0-0.9-0.3-1.2-0.9c-0.6-0.6-0.9-1.5-0.9-3.3c0-0.9,0-2.1,0-3.3c-0.3-12.9-0.9-25.8-2.1-38.4
				c-0.3-4.8-0.6-9.6-0.6-14.1c0-1.8,0.3-3.6,0.6-5.7c0.6-1.8,1.2-3.6,2.7-5.1c2.1-1.8,5.1-3.6,9.3-5.4c2.1-0.9,3.9-1.5,6-2.1
				c1.8-0.6,3.3-0.9,4.5-0.9c3.9,0,6.9,1.5,9,3.9c2.1,2.4,3.3,5.7,3.3,9.6c0,1.2,0,2.1,0,2.7c-0.3,0.6-0.9,0.6-2.1,0.6
				c-5.7,0-10.2,1.2-13.5,3.6c-3.6,2.4-5.1,6.6-5.1,12.9c0,2.1,0,3.9,0.3,6h10.5c1.5,0,3.3,0.6,5.4,1.5c2.1,0.9,6.6,3,5.7,6
				c-0.3,0.9-0.9,1.8-1.8,2.1c-2.4,1.2-6,0.9-8.7,0.9c-3.3,0-6.9,0-10.2-0.3c0.3,7.5,0.3,15,0.3,22.5c0.9,0.3,1.8,0.3,2.7,0.3
				c2.4,0,4.5-0.3,6.9-0.6c2.4-0.6,4.5-0.6,6.9-0.6c0.6,0,1.2,0,2.1,0c0.9,0.3,1.5,0.3,1.8,0.6l7.8,6c0.3,0.6,0.6,1.2,0.6,1.8
				C568.9,357.9,568.3,358.7,567.1,359.4z"/>
			<path d="M630.4,354c0,2.7-6.6,4.8-8.7,4.8c-0.9,0-2.1-0.6-3-1.2c-0.9-0.9-2.1-1.8-3.3-3c-2.4-2.7-4.5-5.7-6.6-8.7
				c-2.1-3.3-4.2-6.3-6.3-8.7c-2.1-2.4-3.9-3.9-5.4-3.9v18.9c0,0.6-0.3,1.8-1.2,3.3c-0.6,1.5-1.8,3-3,4.8c-1.2,1.5-2.4,3-3.6,4.2
				s-2.4,1.8-3.3,2.1c-6,0-9-3.3-9-9.6c0-3,0.3-6,0.9-9c0.6-4.5,0.6-8.7,0.6-12.9c0-11.4-0.6-22.8-1.5-33.9
				c-0.6-5.7-0.9-11.1-0.9-16.8c0-9,8.1-15.6,16.5-15.6c5.7,0,12,1.2,18.3,3.9c3,1.5,5.4,3.3,7.5,5.4c1.8,2.4,2.7,5.1,2.7,8.7
				c0,3.3-0.9,6.9-2.7,9.9c-1.8,3.3-3.6,6.3-6,9c-2.1,2.7-4.2,5.1-6,7.2c-1.8,2.1-2.7,3.6-2.7,4.8c0,0.3,0.6,0.9,1.5,1.8
				c0.9,0.9,2.1,1.8,3.3,2.7c2.7,2.1,4.8,3.6,6,4.5c2.1,1.8,4.2,3.9,6,6c1.8,1.8,3,3.9,3.9,6s1.5,4.5,2.4,6.9
				c0.6,0.9,1.2,2.4,1.8,4.2C629.8,351.5,630.4,353,630.4,354z M608.5,288.5c0-1.8-0.6-3-1.5-3.6c-0.9-0.6-2.1-0.6-3.6-0.6
				c-1.2,0-2.7,0.3-4.2,0.9c-1.5,0.6-3,1.2-4.2,1.8l0.6,23.4c1.2-0.6,2.7-1.8,4.2-3.6c1.5-1.8,3-3.9,4.2-6
				C607,295.5,608.5,291.5,608.5,288.5z"/>
			<path d="M670,336.5c0,2.7-0.9,5.4-3,8.1c-1.8,3-3.6,5.4-5.4,7.5c-1.5,1.8-3.6,4.5-6.6,7.8c-1.5,1.5-2.7,2.7-4.2,3.9
				c-5.7,4.2-14.4-2.4-8.7-8.4c1.5-1.5,3-3.3,4.8-5.1c2.1-1.8,3.6-3.9,5.1-6c1.2-1.8,2.1-3.9,2.1-6c0-1.8-0.9-3.9-2.7-6.6
				c-1.8-2.4-4.2-4.8-6.6-7.8s-4.5-6-6.3-9.3c-2.1-3.3-3-6.9-3-10.5c0-6.3,2.4-12.9,6.9-19.5c2.1-3.3,4.5-6,7.5-7.8
				c2.7-2.1,5.7-3,8.7-3c0.6,0,1.5,0.3,2.1,1.2c0.6,0.6,1.5,1.5,2.1,2.7c1.2,2.4,2.1,4.2,2.1,5.7c0,2.4-3,3.3-4.5,4.5
				c-3.6,3-5.7,8.1-6.9,12.3c-0.6,2.4-1.2,4.8-1.2,7.2c0,3,0.9,6,2.7,8.4c1.8,2.4,3.6,4.8,6,7.2c2.4,2.1,4.2,4.5,6,6.6
				C669.1,331.2,670,333.5,670,336.5z"/>
			<path d="M336.7,280.2c0.3-1.8,0-3.6-0.9-4.8c-0.9-1.2-5.4-2.1-7.2-2.1c-1.8-0.3-3.6,0.3-5.1,1.2c-1.8,0.9-2.7,2.4-2.7,4.2
				c-0.6,6.9-0.3,13.8,0.6,20.7c0.3,1.5,0,3.3,0,4.8s0,3.6-0.6,5.1c-0.6,1.2-2.7,1.5-4.2,1.8c-2.1,0.3-4.2,0.6-6.3,0.6
				s-3.9-0.3-3.9-2.4c0-0.3,0-0.9,0-1.2c0-7.8,0.6-15.9,0-23.7c0-0.3,0-0.6,0-1.2c-0.6-3.6-6-9.3-12.3-7.5
				c-3.3,0.9-3.3,9.6-3.6,12.3c-0.3,2.4,0,28.2,0.3,31.2c0.6,3,0.9,5.7,0.9,8.1c0,3.9,0,8.1-0.3,11.7c-0.3,5.1-0.6,10.2-1.2,15
				c-0.3,1.8,0,3.6,0.9,4.8s2.1,2.1,4.2,2.1c1.8,0.3,6.6-0.3,8.4-1.2c1.8-0.9,2.7-2.4,2.7-4.2c0.6-6.9,0.3-13.8-0.6-20.7
				c-0.3-1.2,0-2.4,0-3.6c0-0.9,0-2.1,0.3-3c0.6-0.9,1.5-1.2,2.7-1.5s2.4-0.6,3.6-0.6c1.8-0.3,3.9-0.3,6,0s2.7,1.2,2.7,3
				c-0.3,2.4,0,4.8-0.3,6.9c0,3.6,0,7.2,0,11.1c0,0.6,0,0.9,0,1.5c0.3,3.6,3,9.3,7.5,10.5c5.1,1.2,8.1-6.6,8.4-9.6
				c0.3-2.4,0-30.9-0.3-34.2c-0.6-3-0.9-5.7-0.9-8.1c0-3.9,0-8.1,0.3-11.7C335.8,290,336.1,285,336.7,280.2z"/>
		</g>
	</g>
	<g>
		<path d="M319.3,411.9v-17.7h3v7.8h8.7v-7.8h3v17.7h-3v-7.2h-8.7v7.2H319.3z"/>
		<path d="M353.8,409.5c-1.8,1.8-3.9,2.7-6.6,2.7c-2.7,0-4.8-0.9-6.6-2.7s-2.7-3.9-2.7-6.6c0-2.7,0.9-4.8,2.7-6.6s3.9-2.7,6.6-2.7
			c2.7,0,4.8,0.9,6.6,2.7s2.7,3.9,2.7,6.6C356.5,405.5,355.6,407.7,353.8,409.5z M351.7,398.4c-1.2-1.2-2.7-1.8-4.5-1.8
			s-3.3,0.6-4.5,1.8s-1.8,2.7-1.8,4.5s0.6,3.3,1.8,4.5s2.7,1.8,4.5,1.8s3.3-0.6,4.5-1.8s1.8-2.7,1.8-4.5
			C353.5,401.4,352.9,399.9,351.7,398.4z"/>
		<path d="M366.1,396.5c-0.9,0-1.5,0.3-2.1,0.6s-0.9,0.9-0.9,1.5s0.3,1.2,0.9,1.5c0.6,0.3,1.8,0.9,3.6,1.2s3.3,1.2,4.2,1.8
			c0.9,0.9,1.5,2.1,1.5,3.6s-0.6,2.7-1.8,3.9s-2.7,1.5-4.5,1.5c-2.7,0-5.1-0.9-7.5-3l1.8-2.4c1.8,1.5,3.6,2.4,5.7,2.4
			c0.9,0,1.8-0.3,2.4-0.6c0.6-0.3,0.9-0.9,0.9-1.5s-0.3-1.2-0.9-1.5c-0.6-0.3-1.5-0.6-2.7-0.9c-1.2-0.3-2.4-0.6-3-0.9
			c-0.6-0.3-1.2-0.6-1.8-0.9c-0.9-0.9-1.5-2.1-1.5-3.6s0.6-3,1.8-3.9s2.7-1.2,4.5-1.2c1.2,0,2.4,0.3,3.3,0.6c1.2,0.3,2.1,0.9,3,1.5
			l-1.5,2.4c-0.6-0.6-1.2-0.9-2.1-1.2C367.6,396.9,366.7,396.5,366.1,396.5z"/>
		<path d="M383.5,397.2v15h-3v-15h-5.4v-2.7h13.8v2.7H383.5z"/>
		<path d="M392.2,394.2h3v17.7h-3V394.2z"/>
		<path d="M413.8,394.2h3v17.7h-3.3l-9.9-12.9v12.9h-3v-17.7h3l10.2,13.2V394.2z"/>
		<path d="M434.2,403.5h3v6c-1.8,1.8-4.2,2.7-7.2,2.7c-2.7,0-4.8-0.9-6.6-2.7s-2.7-3.9-2.7-6.6c0-2.7,0.9-4.8,2.7-6.6
			s3.9-2.7,6.6-2.7c2.4,0,4.8,0.6,6.3,2.1l-1.5,2.4c-0.6-0.6-1.5-0.9-2.1-1.2s-1.5-0.3-2.4-0.3c-1.8,0-3.3,0.6-4.5,1.8
			s-1.8,2.7-1.8,4.5s0.6,3.3,1.8,4.5s2.7,1.8,4.2,1.8c1.8,0,3-0.3,4.2-1.2V403.5z"/>
		<path d="M451.6,397.2v4.8h7.8v2.7h-7.8v7.2h-3v-17.7h11.7v2.7h-8.7V397.2z"/>
		<path d="M478.9,409.5c-1.8,1.8-3.9,2.7-6.6,2.7c-2.7,0-4.8-0.9-6.6-2.7s-2.7-3.9-2.7-6.6c0-2.7,0.9-4.8,2.7-6.6s3.9-2.7,6.6-2.7
			c2.7,0,4.8,0.9,6.6,2.7s2.7,3.9,2.7,6.6C481.6,405.5,480.7,407.7,478.9,409.5z M476.5,398.4c-1.2-1.2-2.7-1.8-4.5-1.8
			s-3.3,0.6-4.5,1.8s-1.8,2.7-1.8,4.5s0.6,3.3,1.8,4.5s2.7,1.8,4.5,1.8s3.3-0.6,4.5-1.8s1.8-2.7,1.8-4.5
			C478.3,401.4,477.7,399.9,476.5,398.4z"/>
		<path d="M499.6,400.2c0,3-1.2,4.8-3.9,5.4l4.5,6.3h-3.9l-4.2-6h-3.9v6h-3v-17.7h6.6c2.7,0,4.5,0.6,5.7,1.5
			C499,396.5,499.6,398,499.6,400.2z M495.7,402.5c0.6-0.6,0.9-1.5,0.9-2.4c0-1.2-0.3-1.8-0.9-2.4c-0.6-0.3-1.8-0.6-3.3-0.6h-3.9
			v6.3h3.6C493.9,403.5,495.1,403.2,495.7,402.5z"/>
		<path d="M514.3,397.2v4.8h7.8v2.7h-7.8v7.2h-3v-17.7H523v2.7h-8.7V397.2z"/>
		<path d="M541,400.2c0,3-1.2,4.8-3.9,5.4l4.5,6.3H538l-4.2-6h-3.9v6h-3v-17.7h6.6c2.7,0,4.5,0.6,5.7,1.5
			C540.4,396.5,541,398,541,400.2z M537.1,402.5c0.6-0.6,0.9-1.5,0.9-2.4c0-1.2-0.3-1.8-0.9-2.4c-0.6-0.3-1.8-0.6-3.3-0.6h-3.9v6.3
			h3.6C535.3,403.5,536.5,403.2,537.1,402.5z"/>
		<path d="M558.1,394.2v2.7h-9.3v4.8h8.4v2.7h-8.4v4.8h9.6v2.7h-12.6v-17.7H558.1z"/>
		<path d="M574.9,394.2v2.7h-9.3v4.8h8.4v2.7h-8.4v4.8h9.6v2.7h-12.6v-17.7H574.9z"/>
		<path d="M592.6,396.5c1.8,1.5,2.7,3.6,2.7,6.3s-0.9,4.8-2.4,6.6c-1.8,1.5-4.2,2.4-7.5,2.4h-6v-17.7h6
			C588.4,394.2,590.8,395,592.6,396.5z M592,403.2c0-3.9-2.4-6-6.9-6h-3v12h3.3c2.1,0,3.9-0.6,4.8-1.5
			C591.4,406.7,592,405.2,592,403.2z"/>
		<path d="M613.9,409.5c-1.8,1.8-3.9,2.7-6.6,2.7s-4.8-0.9-6.6-2.7c-1.8-1.8-2.7-3.9-2.7-6.6c0-2.7,0.9-4.8,2.7-6.6
			c1.8-1.8,3.9-2.7,6.6-2.7s4.8,0.9,6.6,2.7c1.8,1.8,2.7,3.9,2.7,6.6C616.6,405.5,615.7,407.7,613.9,409.5z M611.8,398.4
			c-1.2-1.2-2.7-1.8-4.5-1.8s-3.3,0.6-4.5,1.8s-1.8,2.7-1.8,4.5s0.6,3.3,1.8,4.5c1.2,1.2,2.7,1.8,4.5,1.8s3.3-0.6,4.5-1.8
			s1.8-2.7,1.8-4.5C613.6,401.4,613,399.9,611.8,398.4z"/>
		<path d="M623.8,411.9h-3v-17.7h4.8l5.4,11.1l5.4-11.1h4.5v17.7h-3V398l-6.3,12.3h-1.8l-6-12.3V411.9z"/>
		<path d="M383.2,422h3v17.7h-3.3l-9.9-12.9v12.9h-3V422h3l10.2,13.2V422z"/>
		<path d="M406.3,437.4c-1.8,1.8-3.9,2.7-6.6,2.7c-2.7,0-4.8-0.9-6.6-2.7s-2.7-3.9-2.7-6.6c0-2.7,0.9-4.8,2.7-6.6s3.9-2.7,6.6-2.7
			c2.7,0,4.8,0.9,6.6,2.7s2.7,3.9,2.7,6.6S408.1,435.5,406.3,437.4z M403.9,426.2c-1.2-1.2-2.7-1.8-4.5-1.8s-3.3,0.6-4.5,1.8
			s-1.8,2.7-1.8,4.5s0.6,3.3,1.8,4.5s2.7,1.8,4.5,1.8s3.3-0.6,4.5-1.8s1.8-2.7,1.8-4.5S405.1,427.5,403.9,426.2z"/>
		<path d="M419.2,424.7v15h-3v-15h-5.4V422h13.8v2.7H419.2z"/>
		<path d="M438.1,424.7v4.8h7.8v2.7h-7.8v7.2h-3v-17.7h11.7v2.7h-8.7V424.7z"/>
		<path d="M465.4,437.4c-1.8,1.8-3.9,2.7-6.6,2.7c-2.7,0-4.8-0.9-6.6-2.7s-2.7-3.9-2.7-6.6c0-2.7,0.9-4.8,2.7-6.6s3.9-2.7,6.6-2.7
			c2.7,0,4.8,0.9,6.6,2.7s2.7,3.9,2.7,6.6C468.1,433.5,467.2,435.5,465.4,437.4z M463.3,426.2c-1.2-1.2-2.7-1.8-4.5-1.8
			s-3.3,0.6-4.5,1.8s-1.8,2.7-1.8,4.5s0.6,3.3,1.8,4.5s2.7,1.8,4.5,1.8s3.3-0.6,4.5-1.8s1.8-2.7,1.8-4.5S464.5,427.5,463.3,426.2z"
			/>
		<path d="M486.4,427.7c0,3-1.2,4.8-3.9,5.4l4.5,6.3h-3.9l-4.2-6H475v6h-3v-17.7h6.6c2.7,0,4.5,0.6,5.7,1.5
			C485.8,424.5,486.4,426,486.4,427.7z M482.5,430.5c0.6-0.6,0.9-1.5,0.9-2.4c0-1.2-0.3-1.8-0.9-2.4c-0.6-0.3-1.8-0.6-3.3-0.6h-3.9
			v6.3h3.6C480.7,431,481.6,430.7,482.5,430.5z"/>
		<path d="M510.1,423.5c1.2,0.9,1.8,2.7,1.8,4.8s-0.6,3.6-1.8,4.8c-1.2,0.9-3.3,1.5-5.7,1.5h-3v5.1h-3v-17.7h6
			C506.8,422,508.9,422.7,510.1,423.5z M508,431c0.6-0.6,0.9-1.5,0.9-2.7s-0.3-2.1-1.2-2.7c-0.9-0.6-1.8-0.9-3.6-0.9h-3v7.2h3.6
			C506.2,432,507.4,431.7,508,431z"/>
		<path d="M529.6,427.7c0,3-1.2,4.8-3.9,5.4l4.5,6.3h-3.9l-4.2-6h-3.9v6h-3v-17.7h6.6c2.7,0,4.5,0.6,5.7,1.5
			C529.3,424.5,529.6,426,529.6,427.7z M525.7,430.5c0.6-0.6,0.9-1.5,0.9-2.4c0-1.2-0.3-1.8-0.9-2.4c-0.6-0.3-1.8-0.6-3.3-0.6h-3.9
			v6.3h3.6C523.9,431,525.1,430.7,525.7,430.5z"/>
		<path d="M549.1,437.4c-1.8,1.8-3.9,2.7-6.6,2.7c-2.7,0-4.8-0.9-6.6-2.7c-1.8-1.8-2.7-3.9-2.7-6.6c0-2.7,0.9-4.8,2.7-6.6
			c1.8-1.8,3.9-2.7,6.6-2.7c2.7,0,4.8,0.9,6.6,2.7c1.8,1.8,2.7,3.9,2.7,6.6S550.9,435.5,549.1,437.4z M547,426.2
			c-1.2-1.2-2.7-1.8-4.5-1.8c-1.8,0-3.3,0.6-4.5,1.8c-1.2,1.2-1.8,2.7-1.8,4.5s0.6,3.3,1.8,4.5c1.2,1.2,2.7,1.8,4.5,1.8
			c1.8,0,3.3-0.6,4.5-1.8c1.2-1.2,1.8-2.7,1.8-4.5S548.2,427.5,547,426.2z"/>
		<path d="M558.7,424.7v4.8h7.8v2.7h-7.8v7.2h-3v-17.7h11.7v2.7h-8.7V424.7z"/>
		<path d="M571.3,422h3v17.7h-3V422z"/>
		<path d="M586.3,424.7v15h-3v-15h-5.4V422h13.8v2.7H586.3z"/>
	</g>
</g>
</svg>
